STARTFONT 2.1
FONT -DEC-Present Bullets-Medium-R-Normal--10-100-75-75-P-123-DEC-FontSpecific
SIZE 10 75 75
FONTBOUNDINGBOX 15 10 0 -1

STARTPROPERTIES 10
COPYRIGHT "Copyright 1990,  Digital Equipment Corporation Created by Loree Nelson, The Artis Consultancy"
POINT_SIZE 100
WEIGHT 10
RESOLUTION_X 75
RESOLUTION_Y 75
X_HEIGHT 7
QUAD_WIDTH 9
DEFAULT_CHAR 0
FONT_DESCENT 2
FONT_ASCENT 9
ENDPROPERTIES

CHARS 59

STARTCHAR space
ENCODING 32
SWIDTH 250 0
DWIDTH 3 0
BBX 0 0 0 0
BITMAP
ENDCHAR

STARTCHAR A
ENCODING 65
SWIDTH 704 0
DWIDTH 7 0
BBX 6 7 0 1
BITMAP
0C
08
F8
98
B8
A8
F8
ENDCHAR

STARTCHAR B
ENCODING 66
SWIDTH 616 0
DWIDTH 6 0
BBX 6 9 0 0
BITMAP
0C
0C
1C
18
10
F0
E0
60
60
ENDCHAR

STARTCHAR C
ENCODING 67
SWIDTH 740 0
DWIDTH 7 0
BBX 5 7 0 0
BITMAP
80
40
30
08
30
40
80
ENDCHAR

STARTCHAR D
ENCODING 68
SWIDTH 953 0
DWIDTH 10 0
BBX 9 8 0 0
BITMAP
0800
1C00
1400
F780
4100
2200
3E00
2200
ENDCHAR

STARTCHAR E
ENCODING 69
SWIDTH 1048 0
DWIDTH 10 0
BBX 9 9 0 0
BITMAP
0800
0800
1C00
FF80
7F00
3E00
3E00
3600
6300
ENDCHAR

STARTCHAR F
ENCODING 70
SWIDTH 732 0
DWIDTH 7 0
BBX 7 9 0 0
BITMAP
10
10
F8
FC
FE
FC
F8
10
10
ENDCHAR

STARTCHAR G
ENCODING 71
SWIDTH 732 0
DWIDTH 7 0
BBX 7 9 0 0
BITMAP
10
10
F8
84
82
84
F8
10
10
ENDCHAR

STARTCHAR H
ENCODING 72
SWIDTH 1000 0
DWIDTH 10 0
BBX 6 2 5 1
BITMAP
1C
FC
ENDCHAR

STARTCHAR I
ENCODING 73
SWIDTH 787 0
DWIDTH 8 0
BBX 6 7 0 0
BITMAP
E0
30
18
08
0C
0C
0C
ENDCHAR

STARTCHAR J
ENCODING 74
SWIDTH 756 0
DWIDTH 8 0
BBX 5 7 0 0
BITMAP
80
58
30
20
50
D0
08
ENDCHAR

STARTCHAR K
ENCODING 75
SWIDTH 935 0
DWIDTH 9 0
BBX 7 9 0 0
BITMAP
C6
44
28
38
10
38
28
44
C6
ENDCHAR

STARTCHAR L
ENCODING 76
SWIDTH 1000 0
DWIDTH 10 0
BBX 9 7 0 0
BITMAP
E000
F800
7400
2A00
1500
0F80
0380
ENDCHAR

STARTCHAR M
ENCODING 77
SWIDTH 1440 0
DWIDTH 14 0
BBX 15 7 0 -1
BITMAP
1FF0
3FF8
FFFE
FC7E
BC7A
7FFC
7FFC
ENDCHAR

STARTCHAR N
ENCODING 78
SWIDTH 1292 0
DWIDTH 13 0
BBX 10 7 0 0
BITMAP
7F80
FFC0
FFC0
BF40
7380
7F80
7F80
ENDCHAR

STARTCHAR O
ENCODING 79
SWIDTH 1488 0
DWIDTH 15 0
BBX 14 6 0 0
BITMAP
7FFC
50F8
51C0
7D80
F3C0
E0C0
ENDCHAR

STARTCHAR P
ENCODING 80
SWIDTH 1292 0
DWIDTH 13 0
BBX 13 5 0 1
BITMAP
3FF8
CBE0
D180
E300
FF00
ENDCHAR

STARTCHAR Q
ENCODING 81
SWIDTH 844 0
DWIDTH 8 0
BBX 7 7 0 1
BITMAP
20
20
B0
FE
B0
A0
20
ENDCHAR

STARTCHAR R
ENCODING 82
SWIDTH 1195 0
DWIDTH 12 0
BBX 8 7 0 0
BITMAP
3C
42
42
FF
BD
FF
42
ENDCHAR

STARTCHAR S
ENCODING 83
SWIDTH 1376 0
DWIDTH 14 0
BBX 12 6 0 0
BITMAP
FFF0
C070
B190
AE50
C030
FFF0
ENDCHAR

STARTCHAR T
ENCODING 84
SWIDTH 1098 0
DWIDTH 11 0
BBX 10 10 0 -1
BITMAP
2100
3F00
F3C0
2100
2900
2500
2100
1E00
1E00
1200
ENDCHAR

STARTCHAR U
ENCODING 85
SWIDTH 992 0
DWIDTH 10 0
BBX 9 9 0 0
BITMAP
9C80
2200
AA80
2A00
3E00
1C00
1C00
1C00
0800
ENDCHAR

STARTCHAR V
ENCODING 86
SWIDTH 1175 0
DWIDTH 12 0
BBX 10 7 0 0
BITMAP
7E00
4200
4200
4300
3C80
7E80
FF40
ENDCHAR

STARTCHAR W
ENCODING 87
SWIDTH 790 0
DWIDTH 8 0
BBX 6 7 0 0
BITMAP
70
CC
B4
94
94
DC
38
ENDCHAR

STARTCHAR X
ENCODING 88
SWIDTH 860 0
DWIDTH 9 0
BBX 7 7 0 0
BITMAP
FE
EE
06
02
06
EE
FE
ENDCHAR

STARTCHAR Y
ENCODING 89
SWIDTH 804 0
DWIDTH 8 0
BBX 7 8 0 0
BITMAP
10
18
F4
8A
8A
F4
18
10
ENDCHAR

STARTCHAR Z
ENCODING 90
SWIDTH 1220 0
DWIDTH 12 0
BBX 10 7 0 0
BITMAP
E000
5800
2780
19C0
1F80
3800
6000
ENDCHAR

STARTCHAR bracketleft
ENCODING 91
SWIDTH 1260 0
DWIDTH 13 0
BBX 10 5 0 1
BITMAP
0100
0180
FFC0
0180
0100
ENDCHAR

STARTCHAR backslash
ENCODING 92
SWIDTH 915 0
DWIDTH 9 0
BBX 7 7 1 0
BITMAP
BA
54
BA
EE
BA
54
BA
ENDCHAR

STARTCHAR bracketright
ENCODING 93
SWIDTH 1292 0
DWIDTH 13 0
BBX 11 5 0 1
BITMAP
1FE0
BE00
BF00
BF00
BE00
ENDCHAR

STARTCHAR asciicircum
ENCODING 94
SWIDTH 940 0
DWIDTH 9 0
BBX 6 1 2 3
BITMAP
FC
ENDCHAR

STARTCHAR underscore
ENCODING 95
SWIDTH 1164 0
DWIDTH 12 0
BBX 9 1 1 3
BITMAP
FF80
ENDCHAR

STARTCHAR grave
ENCODING 96
SWIDTH 720 0
DWIDTH 7 0
BBX 6 6 0 1
BITMAP
30
48
84
84
48
30
ENDCHAR

STARTCHAR a
ENCODING 97
SWIDTH 720 0
DWIDTH 7 0
BBX 5 5 1 1
BITMAP
70
F8
F8
F8
70
ENDCHAR

STARTCHAR b
ENCODING 98
SWIDTH 1272 0
DWIDTH 13 0
BBX 9 5 2 1
BITMAP
0300
B780
B780
0780
0300
ENDCHAR

STARTCHAR c
ENCODING 99
SWIDTH 556 0
DWIDTH 6 0
BBX 4 7 0 0
BITMAP
C0
E0
F0
F0
F0
E0
C0
ENDCHAR

STARTCHAR d
ENCODING 100
SWIDTH 616 0
DWIDTH 6 0
BBX 4 9 0 0
BITMAP
40
20
10
10
10
10
30
E0
C0
ENDCHAR

STARTCHAR e
ENCODING 101
SWIDTH 956 0
DWIDTH 10 0
BBX 8 7 0 0
BITMAP
08
06
01
02
0C
38
F0
ENDCHAR

STARTCHAR f
ENCODING 102
SWIDTH 932 0
DWIDTH 9 0
BBX 9 7 0 0
BITMAP
0800
1C00
1C00
3600
7300
6100
E180
ENDCHAR

STARTCHAR g
ENCODING 103
SWIDTH 956 0
DWIDTH 10 0
BBX 9 6 1 1
BITMAP
0800
1C00
3E00
3E00
7F00
FF80
ENDCHAR

STARTCHAR h
ENCODING 104
SWIDTH 620 0
DWIDTH 6 0
BBX 7 9 0 -1
BITMAP
10
38
38
7C
FE
7C
38
38
10
ENDCHAR

STARTCHAR i
ENCODING 105
SWIDTH 620 0
DWIDTH 6 0
BBX 7 9 0 -1
BITMAP
10
38
38
64
E6
64
38
38
10
ENDCHAR

STARTCHAR j
ENCODING 106
SWIDTH 1023 0
DWIDTH 10 0
BBX 9 5 1 2
BITMAP
1C00
3E00
FF80
3E00
1C00
ENDCHAR

STARTCHAR k
ENCODING 107
SWIDTH 930 0
DWIDTH 9 0
BBX 10 9 0 0
BITMAP
0C00
0C00
0C00
1E00
FFC0
1E00
0C00
0C00
0C00
ENDCHAR

STARTCHAR l
ENCODING 108
SWIDTH 548 0
DWIDTH 5 0
BBX 4 7 1 0
BITMAP
80
C0
E0
F0
E0
C0
80
ENDCHAR

STARTCHAR m
ENCODING 109
SWIDTH 896 0
DWIDTH 9 0
BBX 7 3 1 2
BITMAP
FE
78
60
ENDCHAR

STARTCHAR n
ENCODING 110
SWIDTH 1000 0
DWIDTH 10 0
BBX 8 4 1 2
BITMAP
C0
3C
07
18
ENDCHAR

STARTCHAR o
ENCODING 111
SWIDTH 1000 0
DWIDTH 10 0
BBX 10 4 0 2
BITMAP
0400
0600
FF80
FFC0
ENDCHAR

STARTCHAR p
ENCODING 112
SWIDTH 1096 0
DWIDTH 11 0
BBX 10 3 0 2
BITMAP
3FC0
7F80
FF00
ENDCHAR

STARTCHAR q
ENCODING 113
SWIDTH 704 0
DWIDTH 7 0
BBX 7 9 0 0
BITMAP
1E
1C
3C
3C
38
78
70
70
F0
ENDCHAR

STARTCHAR r
ENCODING 114
SWIDTH 1036 0
DWIDTH 10 0
BBX 11 9 0 0
BITMAP
0060
0040
00C0
00C0
0180
0180
0380
0300
FF00
ENDCHAR

STARTCHAR s
ENCODING 115
SWIDTH 1264 0
DWIDTH 13 0
BBX 11 9 2 0
BITMAP
0020
0040
0040
00C0
01C0
03C0
07C0
0FC0
FFC0
ENDCHAR

STARTCHAR t
ENCODING 116
SWIDTH 884 0
DWIDTH 9 0
BBX 6 6 1 0
BITMAP
FC
8C
8C
8C
8C
FC
ENDCHAR

STARTCHAR u
ENCODING 117
SWIDTH 844 0
DWIDTH 8 0
BBX 6 5 0 2
BITMAP
FC
FC
FC
FC
FC
ENDCHAR

STARTCHAR v
ENCODING 118
SWIDTH 1176 0
DWIDTH 12 0
BBX 9 4 0 2
BITMAP
FF80
FF80
FF80
FF80
ENDCHAR

STARTCHAR w
ENCODING 119
SWIDTH 1252 0
DWIDTH 13 0
BBX 10 5 0 1
BITMAP
FD40
FD40
FD40
FD40
FD40
ENDCHAR

STARTCHAR x
ENCODING 120
SWIDTH 1244 0
DWIDTH 12 0
BBX 12 7 0 0
BITMAP
0080
FFC0
FFE0
FFF0
FFE0
FFC0
0080
ENDCHAR

STARTCHAR y
ENCODING 121
SWIDTH 864 0
DWIDTH 9 0
BBX 7 5 0 1
BITMAP
FA
BA
BA
BA
FA
ENDCHAR

STARTCHAR z
ENCODING 122
SWIDTH 704 0
DWIDTH 7 0
BBX 5 5 0 1
BITMAP
F8
88
88
88
F8
ENDCHAR
ENDFONT
